<svg xmlns="http://www.w3.org/2000/svg" viewBox="0 0 500 412.03"><defs><style>.cls-1{fill:#ebebeb;}.cls-2{fill:#f5f5f5;}.cls-3{fill:#fafafa;}.cls-4{fill:#e6e6e6;}.cls-5{fill:#e0e0e0;}.cls-6{fill:#f0f0f0;}.cls-7{fill:#407bff;}.cls-10,.cls-13,.cls-14,.cls-17,.cls-19,.cls-8,.cls-9{fill:#fff;}.cls-16,.cls-8{opacity:0.5;}.cls-12,.cls-9{opacity:0.3;}.cls-10{opacity:0.8;}.cls-11,.cls-23{fill:#263238;}.cls-14,.cls-20{opacity:0.6;}.cls-15,.cls-22,.cls-23{opacity:0.1;}.cls-17{opacity:0.7;}.cls-18,.cls-19,.cls-24{opacity:0.4;}.cls-21{fill:#ebb376;}.cls-25{fill:#d58745;}.cls-26{fill:#2e353a;}</style></defs><title>editor</title><g id="Background_Complete" data-name="Background Complete"><rect class="cls-1" x="416.78" y="364.5" width="33.12" height="0.25"/><rect class="cls-1" x="322.53" y="367.21" width="8.69" height="0.25"/><rect class="cls-1" x="396.59" y="355.21" width="19.19" height="0.25"/><rect class="cls-1" x="52.46" y="356.89" width="43.19" height="0.25"/><rect class="cls-1" x="104.56" y="356.89" width="6.33" height="0.25"/><rect class="cls-1" x="131.47" y="361.11" width="93.68" height="0.25"/><path class="cls-1" d="M237,303.8H43.92a5.71,5.71,0,0,1-5.71-5.71V26.66A5.71,5.71,0,0,1,43.92,21H237a5.71,5.71,0,0,1,5.71,5.7V298.09A5.71,5.71,0,0,1,237,303.8ZM43.92,21.21a5.46,5.46,0,0,0-5.46,5.45V298.09a5.47,5.47,0,0,0,5.46,5.46H237a5.47,5.47,0,0,0,5.46-5.46V26.66A5.46,5.46,0,0,0,237,21.21Z"/><path class="cls-1" d="M453.31,303.8H260.21a5.72,5.72,0,0,1-5.71-5.71V26.66a5.72,5.72,0,0,1,5.71-5.7h193.1a5.71,5.71,0,0,1,5.71,5.7V298.09A5.71,5.71,0,0,1,453.31,303.8ZM260.21,21.21a5.46,5.46,0,0,0-5.46,5.45V298.09a5.47,5.47,0,0,0,5.46,5.46h193.1a5.47,5.47,0,0,0,5.46-5.46V26.66a5.46,5.46,0,0,0-5.46-5.45Z"/><rect class="cls-1" y="348.4" width="500" height="0.25"/><rect class="cls-2" x="329.32" y="210.04" width="87.63" height="131.83"/><rect class="cls-1" x="416.95" y="210.04" width="18.9" height="131.83"/><rect class="cls-3" x="336.26" y="219.82" width="74.26" height="32.02"/><path class="cls-1" d="M367.94,219.82l.37,4.27a2.74,2.74,0,0,0,2.72,2.49h4.72a2.74,2.74,0,0,0,2.72-2.49l.37-4.27Z"/><rect class="cls-3" x="336.26" y="255.33" width="74.26" height="32.02"/><path class="cls-1" d="M367.94,255.33l.37,4.27a2.74,2.74,0,0,0,2.72,2.49h4.72a2.74,2.74,0,0,0,2.72-2.49l.37-4.27Z"/><rect class="cls-3" x="336.26" y="290.84" width="74.26" height="32.02"/><path class="cls-1" d="M367.94,290.84l.37,4.27A2.74,2.74,0,0,0,371,297.6h4.72a2.74,2.74,0,0,0,2.72-2.49l.37-4.27Z"/><polygon class="cls-4" points="410.52 348.45 337.3 348.45 336.26 341.86 410.52 341.86 410.52 348.45"/><polygon class="cls-5" points="428.21 348.45 410.52 348.45 410.52 341.86 429.25 341.86 428.21 348.45"/><polygon class="cls-3" points="372.62 210.18 403.21 210.18 399.82 171.38 369.23 171.38 372.62 210.18"/><polygon class="cls-1" points="372.62 210.18 371.16 210.18 367.76 171.38 369.23 171.38 372.62 210.18"/><polygon class="cls-6" points="375.39 206.22 399.75 206.22 397.04 175.34 372.69 175.34 375.39 206.22"/><polygon class="cls-4" points="377.18 203.68 397.52 203.68 395.26 177.88 374.92 177.88 377.18 203.68"/><polygon class="cls-6" points="396.67 210.18 394.83 189.13 421.52 189.13 423.37 210.18 396.67 210.18"/><polygon class="cls-5" points="396.67 210.18 394.83 189.13 393.39 189.13 395.24 210.18 396.67 210.18"/><polygon class="cls-1" points="399.21 208.03 397.74 191.28 418.99 191.28 420.46 208.03 399.21 208.03"/><polygon class="cls-2" points="400.84 206.66 399.61 192.66 417.36 192.66 418.59 206.66 400.84 206.66"/><rect class="cls-1" x="63.84" y="279.8" width="91.13" height="31.46" transform="translate(218.81 591.06) rotate(180)"/><rect class="cls-1" x="63.84" y="311.26" width="91.13" height="31.46" transform="translate(218.81 653.97) rotate(180)"/><rect class="cls-1" x="158.15" y="279.8" width="91.13" height="31.46" transform="translate(407.44 591.06) rotate(180)"/><rect class="cls-1" x="158.15" y="311.26" width="91.13" height="31.46" transform="translate(407.44 653.97) rotate(180)"/><polygon class="cls-6" points="214.65 311.26 203.32 279.8 220.77 279.8 232.1 311.26 214.65 311.26"/><polygon class="cls-6" points="194.87 279.8 198.7 279.8 210.04 311.26 206.21 311.26 194.87 279.8"/><polygon class="cls-6" points="225.99 342.71 214.65 311.26 232.1 311.26 243.44 342.71 225.99 342.71"/><polygon class="cls-6" points="206.21 311.26 210.04 311.26 221.38 342.71 217.55 342.71 206.21 311.26"/><polygon class="cls-6" points="84.31 311.26 72.98 279.8 90.43 279.8 101.77 311.26 84.31 311.26"/><polygon class="cls-6" points="64.53 279.8 68.36 279.8 79.7 311.26 75.87 311.26 64.53 279.8"/><polygon class="cls-6" points="95.65 342.71 84.31 311.26 101.77 311.26 113.1 342.71 95.65 342.71"/><polygon class="cls-6" points="75.87 311.26 79.7 311.26 91.04 342.71 87.21 342.71 75.87 311.26"/><rect class="cls-5" x="202.13" y="237.48" width="3.18" height="91.13" transform="translate(486.77 79.33) rotate(90)"/><rect class="cls-5" x="202.13" y="268.69" width="3.18" height="91.13" transform="translate(517.98 110.54) rotate(90)"/><path class="cls-4" d="M201.39,299.55a1.37,1.37,0,1,1,0-2.73h4.66a1.37,1.37,0,1,1,0,2.73Z"/><path class="cls-5" d="M201.39,299.07a1.37,1.37,0,1,1,0-2.73h4.66a1.37,1.37,0,1,1,0,2.73Z"/><path class="cls-4" d="M201.39,328.59a1.37,1.37,0,1,1,0-2.73h4.66a1.37,1.37,0,1,1,0,2.73Z"/><path class="cls-5" d="M201.39,328.11a1.37,1.37,0,1,1,0-2.73h4.66a1.37,1.37,0,1,1,0,2.73Z"/><path class="cls-2" d="M156.56,278.39v65.7h94.32v-65.7Zm3.19,34.53h87.94v28H159.75Zm0-31.17h87.94v28H159.75Z"/><rect class="cls-5" x="107.81" y="237.48" width="3.18" height="91.13" transform="translate(392.45 173.64) rotate(90)"/><rect class="cls-5" x="107.81" y="268.69" width="3.18" height="91.13" transform="translate(423.66 204.85) rotate(90)"/><path class="cls-4" d="M107.07,299.55a1.37,1.37,0,0,1,0-2.73h4.67a1.37,1.37,0,0,1,0,2.73Z"/><path class="cls-5" d="M107.07,299.07a1.37,1.37,0,0,1,0-2.73h4.67a1.37,1.37,0,0,1,0,2.73Z"/><path class="cls-4" d="M107.07,328.59a1.37,1.37,0,0,1,0-2.73h4.67a1.37,1.37,0,0,1,0,2.73Z"/><path class="cls-5" d="M107.07,328.11a1.37,1.37,0,0,1,0-2.73h4.67a1.37,1.37,0,0,1,0,2.73Z"/><path class="cls-2" d="M62.25,278.39v65.7h94.31v-65.7Zm3.18,34.53h87.95v28H65.43Zm0-31.17h87.95v28H65.43Z"/><polygon class="cls-5" points="74.83 348.45 66.47 348.45 65.43 344.09 75.87 344.09 74.83 348.45"/><polygon class="cls-5" points="246.25 348.45 237.9 348.45 236.85 344.09 247.29 344.09 246.25 348.45"/><path class="cls-6" d="M91.78,248.91c0-2.55,3-4.71,7.14-5.45l-4.1-4.89h24.34l-4.1,4.89c4.14.74,7.14,2.9,7.14,5.45,0,2.81-3.63,23.33-8.43,27.85l.65.78a.63.63,0,0,1-.48,1H100.05a.63.63,0,0,1-.49-1l.65-.78C95.42,272.24,91.78,251.72,91.78,248.91Z"/><path class="cls-4" d="M137.78,266.78H104.37c0,3.36,3.08,6.31,7.72,8l-1,3.79H131l-.95-3.79C134.7,273.09,137.78,270.14,137.78,266.78Z"/></g><g id="Shadow"><ellipse id="_Path_" data-name="&lt;Path&gt;" class="cls-2" cx="245.18" cy="378.39" rx="193.89" ry="11.32"/></g><g id="Screens"><rect class="cls-7" x="96.96" y="41.27" width="243.32" height="173.28" rx="7.19"/><rect class="cls-8" x="96.96" y="41.27" width="243.32" height="173.28" rx="7.19"/><rect class="cls-8" x="102.58" y="65.97" width="232.09" height="142.96" rx="2.46"/><rect class="cls-9" x="292.74" y="48.01" width="10.48" height="10.48" rx="2.95"/><rect class="cls-8" x="308.46" y="48.01" width="10.48" height="10.48" rx="2.95"/><rect class="cls-10" x="324.19" y="48.01" width="10.48" height="10.48" rx="2.95"/><rect class="cls-7" x="102.58" y="45.95" width="14.6" height="14.6" rx="3.67"/><rect class="cls-10" x="115.12" y="74.96" width="206.44" height="17.22" rx="4.02"/><rect class="cls-10" x="115.12" y="97.79" width="206.44" height="17.22" rx="4.02"/><rect class="cls-10" x="115.12" y="124.35" width="206.44" height="74.96" rx="4.02"/><rect class="cls-7" x="115.12" y="124.38" width="206.44" height="15.13" rx="4.04"/><rect class="cls-8" x="115.12" y="124.31" width="206.44" height="15.13" rx="4.04"/><rect class="cls-8" x="170.6" y="126.7" width="10.28" height="10.28" rx="1.85"/><rect class="cls-8" x="185.29" y="126.7" width="10.28" height="10.28" rx="1.85"/><rect class="cls-8" x="200.17" y="126.7" width="10.28" height="10.28" rx="1.85"/><path class="cls-11" d="M124.51,132.6a1.15,1.15,0,0,1,.23.74,1.09,1.09,0,0,1-.48.95,2.47,2.47,0,0,1-1.4.34h-2.44v-4.72h2.3a2.27,2.27,0,0,1,1.33.33,1.07,1.07,0,0,1,.46.9,1.17,1.17,0,0,1-.17.61,1.1,1.1,0,0,1-.46.42A1.25,1.25,0,0,1,124.51,132.6Zm-3-1.87v1.11h1.09a1,1,0,0,0,.61-.14.46.46,0,0,0,.21-.42.46.46,0,0,0-.21-.41,1.12,1.12,0,0,0-.61-.14Zm1.93,2.93a.49.49,0,0,0,.21-.44c0-.39-.29-.58-.86-.58H121.5v1.16h1.28A1.18,1.18,0,0,0,123.43,133.66Z"/><path class="cls-11" d="M126.53,134.39a2.34,2.34,0,0,1-.92-.87,2.41,2.41,0,0,1-.33-1.25,2.38,2.38,0,0,1,.33-1.25,2.43,2.43,0,0,1,.92-.88,2.78,2.78,0,0,1,1.33-.31,2.74,2.74,0,0,1,1.32.31,2.43,2.43,0,0,1,.92.88,2.39,2.39,0,0,1,.34,1.25,2.41,2.41,0,0,1-.34,1.25,2.34,2.34,0,0,1-.92.87,2.74,2.74,0,0,1-1.32.32A2.78,2.78,0,0,1,126.53,134.39Zm2.08-.81a1.35,1.35,0,0,0,.53-.53,1.55,1.55,0,0,0,.19-.78,1.53,1.53,0,0,0-.19-.78,1.45,1.45,0,0,0-.53-.54,1.47,1.47,0,0,0-.75-.19,1.51,1.51,0,0,0-.76.19,1.45,1.45,0,0,0-.53.54,1.53,1.53,0,0,0-.19.78,1.55,1.55,0,0,0,.19.78,1.35,1.35,0,0,0,.53.53,1.51,1.51,0,0,0,.76.2A1.48,1.48,0,0,0,128.61,133.58Z"/><path class="cls-11" d="M131.26,129.91h2.14a3.09,3.09,0,0,1,1.36.29,2.24,2.24,0,0,1,.92.83,2.38,2.38,0,0,1,.32,1.24,2.41,2.41,0,0,1-.32,1.24,2.22,2.22,0,0,1-.92.82,3,3,0,0,1-1.36.3h-2.14Zm2.09,3.82a1.62,1.62,0,0,0,1.13-.39,1.41,1.41,0,0,0,.42-1.07,1.39,1.39,0,0,0-.42-1.07,1.62,1.62,0,0,0-1.13-.39h-1v2.92Z"/><path class="cls-11" d="M138.89,133v1.68h-1.1v-1.69l-1.82-3h1.16l1.26,2.09,1.26-2.09h1.07Z"/><path class="cls-11" d="M159.37,129.91v4.72h-1.09v-3.85h-.94v-.87Z"/><path class="cls-11" d="M163.72,133.74v.89h-3.56v-.71L162,132.2a1.73,1.73,0,0,0,.4-.48.94.94,0,0,0,.1-.39.51.51,0,0,0-.2-.43.81.81,0,0,0-.56-.16,1.28,1.28,0,0,0-.56.12,1.19,1.19,0,0,0-.42.36l-.79-.52a1.92,1.92,0,0,1,.76-.64,2.59,2.59,0,0,1,1.11-.23,2.36,2.36,0,0,1,.92.17,1.44,1.44,0,0,1,.62.48,1.31,1.31,0,0,1,.21.74,1.58,1.58,0,0,1-.16.72,2.56,2.56,0,0,1-.62.77l-1.09,1Z"/><path class="cls-11" d="M177.78,132.47h0a1.49,1.49,0,0,0-.45-.37,1.26,1.26,0,0,0,.29-.32,1.31,1.31,0,0,0,.18-.69,1.18,1.18,0,0,0-.52-1,2.43,2.43,0,0,0-1.4-.35h-2.45v5H176a2.62,2.62,0,0,0,1.49-.36,1.23,1.23,0,0,0,.54-1.07A1.37,1.37,0,0,0,177.78,132.47Zm-3,.27h1.13c.73,0,.73.32.73.44a.33.33,0,0,1-.16.32,1.05,1.05,0,0,1-.57.12H174.8Zm1.48-1.2a1,1,0,0,1-.54.12h-.94v-.83h.94a1,1,0,0,1,.54.12.31.31,0,0,1,.14.29A.32.32,0,0,1,176.28,131.54Z"/><path class="cls-11" d="M190.38,129.87h1.1l-1,4.72h-1.09Z"/><path class="cls-11" d="M203.74,133.15a2.14,2.14,0,0,1-.56-1.6v-2.64h1.09v2.6c0,.85.35,1.27,1,1.27a1,1,0,0,0,.78-.31,1.41,1.41,0,0,0,.27-1v-2.6h1.08v2.64a2,2,0,0,1-2.14,2.16A2.14,2.14,0,0,1,203.74,133.15Z"/><path class="cls-11" d="M263.53,131.67l1.49-1.49a1.73,1.73,0,0,0,0-2.44l-.48-.48a1.72,1.72,0,0,0-2.43,0l-1.5,1.5a1.71,1.71,0,0,0-.12,2.27l-.92.92a1.71,1.71,0,0,0-2.27.12l-1.5,1.5a1.72,1.72,0,0,0,0,2.43l.48.48a1.73,1.73,0,0,0,2.44,0l1.49-1.49a1.71,1.71,0,0,0,.12-2.28l.92-.92A1.71,1.71,0,0,0,263.53,131.67Zm-2.16-2.15,1.5-1.5a.65.65,0,0,1,.91,0l.48.48a.66.66,0,0,1,0,.92l-1.49,1.49a.66.66,0,0,1-.75.11l.23-.22-.76-.76-.23.22A.64.64,0,0,1,261.37,129.52Zm-1.92,4.71L258,135.72a.66.66,0,0,1-.92,0l-.48-.48a.65.65,0,0,1,0-.91l1.5-1.5a.64.64,0,0,1,.74-.11l-.29.29.76.76.29-.29A.66.66,0,0,1,259.45,134.23Z"/><rect class="cls-11" x="239.93" y="127.35" width="7.58" height="1.12"/><rect class="cls-11" x="237.68" y="129.99" width="12.07" height="1.12"/><rect class="cls-11" x="239.93" y="132.63" width="7.58" height="1.12"/><rect class="cls-11" x="238.8" y="135.27" width="9.83" height="1.12"/><path class="cls-11" d="M219.52,127.91a1.09,1.09,0,1,1-1.09-1.09A1.08,1.08,0,0,1,219.52,127.91Z"/><path class="cls-11" d="M219.52,131.87a1.09,1.09,0,1,1-1.09-1.08A1.09,1.09,0,0,1,219.52,131.87Z"/><path class="cls-11" d="M219.52,135.84a1.09,1.09,0,1,1-1.09-1.09A1.08,1.08,0,0,1,219.52,135.84Z"/><rect class="cls-11" x="221.8" y="127.35" width="7.58" height="1.12"/><rect class="cls-11" x="221.8" y="131.31" width="7.58" height="1.12"/><rect class="cls-11" x="221.8" y="135.27" width="7.58" height="1.12"/><polygon class="cls-11" points="154.15 131.91 152.05 134.01 149.95 131.91 154.15 131.91"/><rect class="cls-11" x="203.18" y="134.33" width="4.27" height="0.84"/><path class="cls-11" d="M125.88,150.71h51.21a1.27,1.27,0,1,0,0-2.52H125.88a1.27,1.27,0,1,0,0,2.52Z"/><path class="cls-11" d="M185.09,150.71h40.44a1.27,1.27,0,1,0,0-2.52H185.09a1.27,1.27,0,1,0,0,2.52Z"/><path class="cls-11" d="M233.72,150.71h35.06a1.27,1.27,0,1,0,0-2.52H233.72a1.27,1.27,0,1,0,0,2.52Z"/><path class="cls-11" d="M276.59,150.71h35.07a1.27,1.27,0,1,0,0-2.52H276.59a1.27,1.27,0,1,0,0,2.52Z"/><path class="cls-11" d="M125.88,163.1H163a1.28,1.28,0,1,0,0-2.53H125.88a1.28,1.28,0,1,0,0,2.53Z"/><path class="cls-11" d="M171,163.1h41.54a1.28,1.28,0,1,0,0-2.53H171a1.28,1.28,0,1,0,0,2.53Z"/><path class="cls-11" d="M220.69,163.1h34.09a1.28,1.28,0,1,0,0-2.53H220.69a1.28,1.28,0,1,0,0,2.53Z"/><path class="cls-11" d="M262.59,163.1h49.07a1.28,1.28,0,1,0,0-2.53H262.59a1.28,1.28,0,1,0,0,2.53Z"/><path class="cls-11" d="M125.88,175.48h47.21a1.28,1.28,0,1,0,0-2.53H125.88a1.28,1.28,0,1,0,0,2.53Z"/><path class="cls-11" d="M181.09,175.48h44.44a1.28,1.28,0,1,0,0-2.53H181.09a1.28,1.28,0,1,0,0,2.53Z"/><path class="cls-11" d="M233.72,175.48h50.35a1.28,1.28,0,1,0,0-2.53H233.72a1.28,1.28,0,1,0,0,2.53Z"/><path class="cls-11" d="M291.88,175.48h19.78a1.28,1.28,0,1,0,0-2.53H291.88a1.28,1.28,0,1,0,0,2.53Z"/><path class="cls-11" d="M125.88,187.86h39.57a1.28,1.28,0,1,0,0-2.53H125.88a1.28,1.28,0,1,0,0,2.53Z"/><path class="cls-11" d="M173.44,187.86h39.07a1.28,1.28,0,1,0,0-2.53H173.44a1.28,1.28,0,1,0,0,2.53Z"/><path class="cls-11" d="M220.69,187.86h26.65a1.28,1.28,0,1,0,0-2.53H220.69a1.28,1.28,0,1,0,0,2.53Z"/><path class="cls-11" d="M255.15,187.86h56.51a1.28,1.28,0,1,0,0-2.53H255.15a1.28,1.28,0,1,0,0,2.53Z"/><g class="cls-12"><path class="cls-13" d="M125.88,150.71h51.21a1.27,1.27,0,1,0,0-2.52H125.88a1.27,1.27,0,1,0,0,2.52Z"/><path class="cls-13" d="M185.09,150.71h40.44a1.27,1.27,0,1,0,0-2.52H185.09a1.27,1.27,0,1,0,0,2.52Z"/><path class="cls-13" d="M233.72,150.71h35.06a1.27,1.27,0,1,0,0-2.52H233.72a1.27,1.27,0,1,0,0,2.52Z"/><path class="cls-13" d="M276.59,150.71h35.07a1.27,1.27,0,1,0,0-2.52H276.59a1.27,1.27,0,1,0,0,2.52Z"/><path class="cls-13" d="M125.88,163.1H163a1.28,1.28,0,1,0,0-2.53H125.88a1.28,1.28,0,1,0,0,2.53Z"/><path class="cls-13" d="M171,163.1h41.54a1.28,1.28,0,1,0,0-2.53H171a1.28,1.28,0,1,0,0,2.53Z"/><path class="cls-13" d="M220.69,163.1h34.09a1.28,1.28,0,1,0,0-2.53H220.69a1.28,1.28,0,1,0,0,2.53Z"/><path class="cls-13" d="M262.59,163.1h49.07a1.28,1.28,0,1,0,0-2.53H262.59a1.28,1.28,0,1,0,0,2.53Z"/><path class="cls-13" d="M125.88,175.48h47.21a1.28,1.28,0,1,0,0-2.53H125.88a1.28,1.28,0,1,0,0,2.53Z"/><path class="cls-13" d="M181.09,175.48h44.44a1.28,1.28,0,1,0,0-2.53H181.09a1.28,1.28,0,1,0,0,2.53Z"/><path class="cls-13" d="M233.72,175.48h50.35a1.28,1.28,0,1,0,0-2.53H233.72a1.28,1.28,0,1,0,0,2.53Z"/><path class="cls-13" d="M291.88,175.48h19.78a1.28,1.28,0,1,0,0-2.53H291.88a1.28,1.28,0,1,0,0,2.53Z"/><path class="cls-13" d="M125.88,187.86h39.57a1.28,1.28,0,1,0,0-2.53H125.88a1.28,1.28,0,1,0,0,2.53Z"/><path class="cls-13" d="M173.44,187.86h39.07a1.28,1.28,0,1,0,0-2.53H173.44a1.28,1.28,0,1,0,0,2.53Z"/><path class="cls-13" d="M220.69,187.86h26.65a1.28,1.28,0,1,0,0-2.53H220.69a1.28,1.28,0,1,0,0,2.53Z"/><path class="cls-13" d="M255.15,187.86h56.51a1.28,1.28,0,1,0,0-2.53H255.15a1.28,1.28,0,1,0,0,2.53Z"/></g><rect class="cls-7" x="110.68" y="159.56" width="60.82" height="57.46" rx="5.2"/><rect class="cls-7" x="108.43" y="159.56" width="60.82" height="57.46" rx="5.2"/><rect class="cls-14" x="108.43" y="159.56" width="60.82" height="57.46" rx="5.2"/><path class="cls-11" d="M117.84,175.48h42a1.27,1.27,0,0,0,0-2.53h-42a1.27,1.27,0,0,0,0,2.53Z"/><path class="cls-11" d="M117.84,200.58h42a1.27,1.27,0,0,0,0-2.53h-42a1.27,1.27,0,0,0,0,2.53Z"/><path class="cls-11" d="M117.84,187.86h42a1.27,1.27,0,0,0,0-2.53h-42a1.27,1.27,0,0,0,0,2.53Z"/><g class="cls-15"><path class="cls-13" d="M117.84,175.48h42a1.27,1.27,0,0,0,0-2.53h-42a1.27,1.27,0,0,0,0,2.53Z"/><path class="cls-13" d="M117.84,200.58h42a1.27,1.27,0,0,0,0-2.53h-42a1.27,1.27,0,0,0,0,2.53Z"/><path class="cls-13" d="M117.84,187.86h42a1.27,1.27,0,0,0,0-2.53h-42a1.27,1.27,0,0,0,0,2.53Z"/></g><rect class="cls-7" x="150.68" y="205.88" width="9.18" height="6.18" rx="1.42"/><rect class="cls-10" x="138.85" y="205.88" width="9.18" height="6.18" rx="1.42"/></g><g id="Plant"><path class="cls-7" d="M154.52,347.49s-3.13-47.37,3.44-58.62c0,0,7.31,9.74,4.53,58.62Z"/><path class="cls-7" d="M162.49,347.49S164,304.88,184.92,298a116.28,116.28,0,0,0-13.34,49.53Z"/><path class="cls-7" d="M155.22,347.49s-1.48-42.61-22.43-49.53a116.37,116.37,0,0,1,13.35,49.53Z"/><g class="cls-12"><path class="cls-13" d="M154.52,347.49s-3.13-47.37,3.44-58.62c0,0,7.31,9.74,4.53,58.62Z"/><path class="cls-13" d="M162.49,347.49S164,304.88,184.92,298a116.28,116.28,0,0,0-13.34,49.53Z"/><path class="cls-13" d="M155.22,347.49s-1.48-42.61-22.43-49.53a116.37,116.37,0,0,1,13.35,49.53Z"/></g><path class="cls-7" d="M141.86,349s-4.87-34.13-20.8-43.61c0,0,27.63-2.28,27,43.61Z"/><path class="cls-7" d="M150.27,347.87s5.8-36.79-12.52-54.24c0,0,25.89,5.69,19.06,55.37Z"/><path class="cls-7" d="M175.36,349s4.87-34.13,20.8-43.61c0,0-27.63-2.28-27,43.61Z"/><path class="cls-7" d="M167,347.87s-5.8-36.79,12.51-54.24c0,0-25.88,5.69-19.06,55.37Z"/><g class="cls-16"><path class="cls-13" d="M141.86,349s-4.87-34.13-20.8-43.61c0,0,27.63-2.28,27,43.61Z"/><path class="cls-13" d="M150.27,347.87s5.8-36.79-12.52-54.24c0,0,25.89,5.69,19.06,55.37Z"/><path class="cls-13" d="M175.36,349s4.87-34.13,20.8-43.61c0,0-27.63-2.28-27,43.61Z"/><path class="cls-13" d="M167,347.87s-5.8-36.79,12.51-54.24c0,0-25.88,5.69-19.06,55.37Z"/></g><polygon class="cls-11" points="175.94 375.32 141.49 375.32 134.82 338.64 182.62 338.64 175.94 375.32"/></g><g id="Mug"><path class="cls-11" d="M237.87,223.25H225.26a1.37,1.37,0,0,0-1.34,1.62l0,.11a3.44,3.44,0,0,0-1.9.06c-2.28.68-2.34,2.71-1.66,5s1.85,3.94,4.12,3.26a4,4,0,0,0,1-.49,6.26,6.26,0,0,0,2.12,2.67v1.67h7.82v-1.67a6.31,6.31,0,0,0,2.52-4l1.22-6.61A1.37,1.37,0,0,0,237.87,223.25Zm-13.69,8.58c-1.49.45-2.26-.64-2.71-2.14s-.4-2.82,1.09-3.27a2.2,2.2,0,0,1,1.67.12l.88,4.78A2.2,2.2,0,0,1,224.18,231.83Z"/><path class="cls-17" d="M237.87,223.25H225.26a1.37,1.37,0,0,0-1.34,1.62l0,.11a3.44,3.44,0,0,0-1.9.06c-2.28.68-2.34,2.71-1.66,5s1.85,3.94,4.12,3.26a4,4,0,0,0,1-.49,6.26,6.26,0,0,0,2.12,2.67v1.67h7.82v-1.67a6.31,6.31,0,0,0,2.52-4l1.22-6.61A1.37,1.37,0,0,0,237.87,223.25Zm-13.69,8.58c-1.49.45-2.26-.64-2.71-2.14s-.4-2.82,1.09-3.27a2.2,2.2,0,0,1,1.67.12l.88,4.78A2.2,2.2,0,0,1,224.18,231.83Z"/><path class="cls-8" d="M224.18,231.83c-1.49.45-2.26-.64-2.71-2.14s-.4-2.82,1.09-3.27a2.2,2.2,0,0,1,1.67.12l.88,4.78A2.2,2.2,0,0,1,224.18,231.83Z"/><path class="cls-11" d="M235.81,239.09h-8.49a3.1,3.1,0,0,1-1.48-.38L223,237.14a.58.58,0,0,1,.27-1.09h16.65a.58.58,0,0,1,.28,1.09l-2.87,1.57A3.11,3.11,0,0,1,235.81,239.09Z"/><path class="cls-14" d="M235.81,239.09h-8.49a3.1,3.1,0,0,1-1.48-.38L223,237.14a.58.58,0,0,1,.27-1.09h16.65a.58.58,0,0,1,.28,1.09l-2.87,1.57A3.11,3.11,0,0,1,235.81,239.09Z"/></g><g id="Character"><polygon class="cls-7" points="298.82 374.75 294.02 374.75 299.62 300.25 306.01 300.25 298.82 374.75"/><polygon class="cls-17" points="298.82 374.75 294.02 374.75 299.62 300.25 306.01 300.25 298.82 374.75"/><g class="cls-18"><polygon class="cls-7" points="338.17 374.75 333.37 374.75 338.97 300.25 345.36 300.25 338.17 374.75"/></g><polygon class="cls-7" points="385.65 374.75 390.44 374.75 384.85 300.25 378.45 300.25 385.65 374.75"/><g class="cls-18"><polygon class="cls-13" points="385.65 374.75 390.44 374.75 384.85 300.25 378.45 300.25 385.65 374.75"/></g><rect class="cls-7" x="303.18" y="300.25" width="78.72" height="6.96"/><rect class="cls-8" x="303.18" y="300.25" width="78.72" height="6.96"/><polygon class="cls-7" points="346.3 374.75 351.09 374.75 345.5 300.25 339.1 300.25 346.3 374.75"/><polygon class="cls-17" points="346.3 374.75 351.09 374.75 345.5 300.25 339.1 300.25 346.3 374.75"/><path class="cls-11" d="M386.68,213.3H373.63a17.76,17.76,0,0,0-16,10.11l-36.73,76.84H383a8.32,8.32,0,0,0,8.27-7.41l7.31-66.3A11.93,11.93,0,0,0,386.68,213.3Z"/><path class="cls-19" d="M386.68,213.3H373.63a17.76,17.76,0,0,0-16,10.11l-36.73,76.84H383a8.32,8.32,0,0,0,8.27-7.41l7.31-66.3A11.93,11.93,0,0,0,386.68,213.3Z"/><path class="cls-11" d="M378.72,213.3h-13a17.78,17.78,0,0,0-16,10.11l-36.72,76.84h60.87a9.67,9.67,0,0,0,9.61-8.61l7.18-65.1A11.93,11.93,0,0,0,378.72,213.3Z"/><path class="cls-9" d="M378.72,213.3h-13a17.78,17.78,0,0,0-16,10.11l-36.72,76.84h60.87a9.67,9.67,0,0,0,9.61-8.61l7.18-65.1A11.93,11.93,0,0,0,378.72,213.3Z"/><path class="cls-11" d="M352.33,300.25h-51a8.52,8.52,0,0,1-8.51-8.52h0a8.51,8.51,0,0,1,8.51-8.52h51Z"/><path class="cls-9" d="M352.33,300.25h-51a8.52,8.52,0,0,1-8.51-8.52h0a8.51,8.51,0,0,1,8.51-8.52h51Z"/><path class="cls-11" d="M383.52,300.25h-33a8.15,8.15,0,0,1-8.15-8.15v-.74a8.15,8.15,0,0,1,8.15-8.15h33a8.51,8.51,0,0,1,8.52,8.52h0A8.52,8.52,0,0,1,383.52,300.25Z"/><path class="cls-19" d="M383.52,300.25h-33a8.15,8.15,0,0,1-8.15-8.15v-.74a8.15,8.15,0,0,1,8.15-8.15h33a8.51,8.51,0,0,1,8.52,8.52h0A8.52,8.52,0,0,1,383.52,300.25Z"/><path class="cls-11" d="M335.23,168.38s-4.39,13.76,0,9.15c0,0-3.2,15.31,2.72,5.16,0,0-2.81,13.66,1.8,13.78s17.93-.49,17.93-.49l3.51-6.11,1.38-3.62s6.8,1,5-5.61a140.44,140.44,0,0,0-6.09-15.93l-4.51-5.51L338,162.73Z"/><path class="cls-20" d="M335.23,168.38s-4.39,13.76,0,9.15c0,0-3.2,15.31,2.72,5.16,0,0-2.81,13.66,1.8,13.78s17.93-.49,17.93-.49l3.51-6.11,1.38-3.62s6.8,1,5-5.61a140.44,140.44,0,0,0-6.09-15.93l-4.51-5.51L338,162.73Z"/><path class="cls-21" d="M325.09,205.8s.59,11.62-5.87,17.13c-5.87,5-15.12,8.94-15.12,8.94l-7.86-2.33a2,2,0,0,0-2.09.61l-3.8,4.32a2,2,0,0,0,.26,2.91h0a2,2,0,0,0,1.5.43l4.16-.51a34,34,0,0,0,5,.61,26,26,0,0,0,3.82-1s14.29-1.23,20.68-7.3,8.57-18.66,8.57-18.66Z"/><path class="cls-7" d="M333,184.81c-5.11-.78-8.69,11.88-9.58,23.85l12,4.29S342.53,186.25,333,184.81Z"/><path class="cls-22" d="M335.39,213s3.57-13.38,2.27-21.7l-7.48-2.79s-5.45,11.73-2.64,39.14c3.83-4.92,5.77-12,6.48-15.14Z"/><polygon class="cls-21" points="282.93 342.38 283.81 369.5 289.88 369.5 292.72 341.89 282.93 342.38"/><path class="cls-11" d="M283.72,366.72l6.92,0a.63.63,0,0,1,.62.51l1.43,6.5a1.06,1.06,0,0,1-.8,1.28.91.91,0,0,1-.23,0c-2.88-.06-5.44-.22-9-.22-4.23,0-3.16.5-8.14.56-3,0-3.54-3.38-2.27-3.55,5.83-.72,7.51-2.49,9.76-4.57A2.56,2.56,0,0,1,283.72,366.72Z"/><polygon class="cls-23" points="290.5 363.55 291.18 356.91 283.4 356.91 283.62 363.55 290.5 363.55"/><path class="cls-11" d="M354,240.47s18.91,43,.75,43H302.31s-2.27,11.42-10.44,74.23H283.1s-4.18-73.56.67-84.53c3.8-8.6,30.85-14.75,42.38-17a7.37,7.37,0,0,0,5.89-6.25l2.56-10.56Z"/><polygon class="cls-11" points="281.43 356.17 282.13 360.94 292.55 360.94 293.51 356.17 281.43 356.17"/><polygon class="cls-9" points="281.43 356.17 282.13 360.94 292.55 360.94 293.51 356.17 281.43 356.17"/><path class="cls-24" d="M317.41,276l33.16-16.35v-9l-5-9.93S345,250.84,338,254.44s-33.77,5.23-40.09,13.71c-5.06,6.8-.85,29,1,37.5,2.56-17.89,3.42-22.21,3.42-22.21H310l.65-2.57Z"/><polygon class="cls-21" points="307.23 342.39 309.65 369.14 315.46 369.14 318.19 341.9 307.23 342.39"/><path class="cls-11" d="M309.07,366.72l6.92,0a.65.65,0,0,1,.63.51l1.43,6.5a1.07,1.07,0,0,1-.81,1.28.85.85,0,0,1-.23,0c-2.88-.06-5.44-.22-9-.22-4.23,0-3.16.5-8.14.56-3,0-3.54-3.38-2.27-3.55,5.83-.72,7.51-2.49,9.76-4.57A2.56,2.56,0,0,1,309.07,366.72Z"/><polygon class="cls-23" points="316.02 363.55 316.69 356.91 308.54 356.91 309.14 363.55 316.02 363.55"/><path class="cls-11" d="M367.61,241.22s1.48,4.29,3.4,10.14c4.12,12.49,6.36,32.08-6,32.08H320.8s4.83,4.66-3.7,74.23h-8.77s-11.66-75.81-6.82-86.78c3.74-8.45,26.38-12.31,36.59-13.64a6.23,6.23,0,0,0,5.4-5.66l1-12.26Z"/><polygon class="cls-11" points="306.75 356.17 307.76 360.94 317.87 360.94 318.84 356.17 306.75 356.17"/><polygon class="cls-9" points="306.75 356.17 307.76 360.94 317.87 360.94 318.84 356.17 306.75 356.17"/><path class="cls-7" d="M333.13,244a171.19,171.19,0,0,0-1-19.2c-1.29-12.31-3.8-27.56-2.22-36.32a4.85,4.85,0,0,1,4.88-4h33.39a3.57,3.57,0,0,1,3.5,4.06c-1.65,9.38-5.84,34.16-2.58,56.2C369.14,244.73,343.53,246.76,333.13,244Z"/><path class="cls-22" d="M368.62,229.06c-.1-3.07-.1-6.1,0-9.06l-5.38-.49-9.8,9.73-8.54,2.37-4.35,4.06s19.92-.54,25.54-4.52A27.25,27.25,0,0,0,368.62,229.06Z"/><path class="cls-21" d="M353.28,167.2c-.52,4.83.8,15.11,4.4,18,0,0-1.33,6.3-12.13,7.28-6.58-2.9-4.13-8.24-4.13-8.24,5.18-1.76,5.7-4.9,4.51-8.51Z"/><path class="cls-7" d="M342.87,183.38s-2.9,7.46,4.48,7.48c8.48,0,9.23-7.48,9.23-7.48l2.28,1.09s-.38,14.9-12.88,8.64c0,0-4.82,3.36-5.47-2.25s.46-6.39.46-6.39Z"/><path class="cls-9" d="M342.87,183.38s-2.9,7.46,4.48,7.48c8.48,0,9.23-7.48,9.23-7.48l2.28,1.09s-.38,14.9-12.88,8.64c0,0-4.82,3.36-5.47-2.25s.46-6.39.46-6.39Z"/><path class="cls-22" d="M345.7,181.34c1.92,0,5.73-.85,7.17-7,2-8.42-6.94,1.4-6.94,1.4C346.62,177.81,346.73,179.74,345.7,181.34Z"/><path class="cls-21" d="M356.4,158.12c.73,7.95,1.21,11.29-2.15,15.94-5,7-15,6.16-18.05-1.41-2.78-6.81-3.5-18.66,3.72-23a10.89,10.89,0,0,1,16.48,8.45Z"/><path class="cls-25" d="M339.67,165.63a17.44,17.44,0,0,1-1.55,4.49,2.83,2.83,0,0,0,2.35,0Z"/><path class="cls-26" d="M344.61,160.62a.26.26,0,0,0,.13-.1.32.32,0,0,0-.05-.44h0a3.69,3.69,0,0,0-3.34-.69.32.32,0,0,0-.19.4.31.31,0,0,0,.39.2,3.08,3.08,0,0,1,2.76.59A.32.32,0,0,0,344.61,160.62Z"/><path class="cls-26" d="M333.58,162.3a.43.43,0,0,1-.16-.05.32.32,0,0,1-.08-.44h0a3.71,3.71,0,0,1,3-1.69.32.32,0,0,1,.31.33.3.3,0,0,1-.31.3,3.11,3.11,0,0,0-2.44,1.43A.32.32,0,0,1,333.58,162.3Z"/><path class="cls-26" d="M344,163.77c.12.63-.13,1.21-.55,1.29s-.84-.38-.95-1,.13-1.21.54-1.29S343.87,163.13,344,163.77Z"/><path class="cls-26" d="M336.77,165.07c.11.63-.13,1.21-.55,1.28s-.84-.37-1-1,.13-1.21.54-1.28S336.66,164.42,336.77,165.07Z"/><path class="cls-26" d="M336,164.05l-1.61-.17S335.39,164.93,336,164.05Z"/><path class="cls-26" d="M343.21,162.75l-1.61-.16S342.6,163.64,343.21,162.75Z"/><path class="cls-11" d="M350.6,154.59s-17,7.71-11.78,0c0,0-9.79,6.6-7.05,1.43s5-5.68,5-5.68-2.58.88-2.36-1.11,5.76-5,10.41-3.37c0,0-1.45-2.24.1-3.11s4.66,3.74,4.66,3.74,7.32-1.62,8.09.12-1.62,1.49-1.62,1.49,8.12,2.62,7.5,4.62-2.05.75-2.05.75,6.68,7.86,5.3,10.6-3.87-.48-3.87-.48,6.75,10.26,3.87,12.53-5.37-4-5.37-4,3.89,9.72,1.13,10.47-3.71-6.52-3.71-6.52,1,5.9-1.18,5.89-3.11-18.47-3.11-18.47S352.48,170.79,350.6,154.59Z"/><path class="cls-21" d="M359.22,164.06A5.8,5.8,0,0,1,357,167.9c-1.65,1.22-3.2-.07-3.35-2-.14-1.74.54-4.47,2.49-4.93a2.65,2.65,0,0,1,3.11,2.05A2.6,2.6,0,0,1,359.22,164.06Z"/><path class="cls-11" d="M342.67,173.38a4.18,4.18,0,0,1-.7.16.14.14,0,0,1-.16-.11h0a.14.14,0,0,1,.12-.16,3.88,3.88,0,0,0,2.88-2,.14.14,0,0,1,.19-.07.15.15,0,0,1,.07.19A4,4,0,0,1,342.67,173.38Z"/><path class="cls-22" d="M364.69,193.45S362,207,360,210.71l6,.74,2.57-16.8Z"/><path class="cls-21" d="M364.27,202.61s1.5,13.76-5.42,18S337,230.8,337,230.8L328,228.88a1.2,1.2,0,0,0-1.24.5l-3.93,5.87a1.17,1.17,0,0,0,.05,1.39h0a1.15,1.15,0,0,0,1.06.45l5.51-.57a25,25,0,0,0,3.77.64,31.07,31.07,0,0,0,4.76-1.1s21-2,27.76-8.43S374,208,374,208Z"/><path class="cls-7" d="M369.39,184.75c-6.45-.77-5.49,13.74-6.82,23.91l12,2.79S379,185.9,369.39,184.75Z"/></g><g id="Device"><path class="cls-11" d="M292.25,239a1.38,1.38,0,0,1,0-2.76h37.63a1.38,1.38,0,1,1,0,2.76Z"/><path class="cls-11" d="M295.44,236.62l-5-35.65a2.81,2.81,0,0,0-2.71-2.37h-4.8V239H293.4A2,2,0,0,0,295.44,236.62Z"/><g class="cls-15"><path class="cls-13" d="M292.25,239a1.38,1.38,0,0,1,0-2.76h37.63a1.38,1.38,0,1,1,0,2.76Z"/><path class="cls-13" d="M295.44,236.62l-5-35.65a2.81,2.81,0,0,0-2.71-2.37h-4.8V239H293.4A2,2,0,0,0,295.44,236.62Z"/></g><path class="cls-11" d="M291.33,239H248.78a2.82,2.82,0,0,1-2.71-2.38l-5-35.65a2,2,0,0,1,2-2.37h42.55a2.82,2.82,0,0,1,2.71,2.37l5,35.65A2,2,0,0,1,291.33,239Z"/><path class="cls-17" d="M291.33,239H248.78a2.82,2.82,0,0,1-2.71-2.38l-5-35.65a2,2,0,0,1,2-2.37h42.55a2.82,2.82,0,0,1,2.71,2.37l5,35.65A2,2,0,0,1,291.33,239Z"/><path class="cls-17" d="M269.29,217.82a1.84,1.84,0,0,1-1.86,2.18,2.59,2.59,0,0,1-2.48-2.18,1.85,1.85,0,0,1,1.87-2.17A2.58,2.58,0,0,1,269.29,217.82Z"/></g><g id="Desk"><polygon class="cls-7" points="186.02 375.87 181.17 375.87 179.05 247.61 188.14 247.61 186.02 375.87"/><polygon class="cls-17" points="186.02 375.87 181.17 375.87 179.05 247.61 188.14 247.61 186.02 375.87"/><polygon class="cls-7" points="239.51 375.87 234.66 375.87 232.54 247.61 241.63 247.61 239.51 375.87"/><polygon class="cls-19" points="239.51 375.87 234.66 375.87 232.54 247.61 241.63 247.61 239.51 375.87"/><rect class="cls-7" x="183.59" y="245.46" width="91.45" height="10.03"/><rect class="cls-9" x="183.59" y="245.46" width="91.45" height="10.03"/><rect class="cls-7" x="275.05" y="245.46" width="53.63" height="10.03"/><rect class="cls-8" x="275.05" y="245.46" width="53.63" height="10.03"/><polygon class="cls-7" points="330.96 375.87 326.12 375.87 323.99 247.61 333.09 247.61 330.96 375.87"/><polygon class="cls-19" points="330.96 375.87 326.12 375.87 323.99 247.61 333.09 247.61 330.96 375.87"/><rect class="cls-11" x="261.86" y="239.01" width="76.77" height="8.6" rx="2.65"/><rect class="cls-19" x="261.86" y="239.01" width="76.77" height="8.6" rx="2.65"/><rect class="cls-11" x="171.51" y="239.01" width="102.3" height="8.6" rx="2.65"/><rect class="cls-9" x="171.51" y="239.01" width="102.3" height="8.6" rx="2.65"/><polygon class="cls-7" points="277.47 375.87 272.62 375.87 270.5 247.61 279.59 247.61 277.47 375.87"/><polygon class="cls-17" points="277.47 375.87 272.62 375.87 270.5 247.61 279.59 247.61 277.47 375.87"/></g></svg>